<?xml version="1.0" standalone="no"?>
<!DOCTYPE svg PUBLIC "-//W3C//DTD SVG 20010904//EN"
 "http://www.w3.org/TR/2001/REC-SVG-20010904/DTD/svg10.dtd">
<svg version="1.0" xmlns="http://www.w3.org/2000/svg"
 width="297.000000pt" height="183.000000pt" viewBox="0 0 297.000000 183.000000"
 preserveAspectRatio="xMidYMid meet">

<g transform="translate(0.000000,183.000000) scale(0.100000,-0.100000)"
fill="#000000" stroke="none">
<path d="M0 915 l0 -915 1485 0 1485 0 0 915 0 915 -1485 0 -1485 0 0 -915z
m847 597 c62 -22 128 -71 172 -129 l33 -42 38 48 c74 94 177 141 306 141 245
0 383 -165 384 -457 l0 -83 -185 -89 c-102 -50 -194 -93 -205 -96 -19 -6 -20
-1 -20 144 0 123 -3 152 -16 165 -21 22 -50 20 -74 -4 -19 -19 -20 -33 -20
-289 0 -203 -3 -271 -12 -279 -15 -11 -202 -40 -320 -49 l-78 -6 0 294 c0 216
-4 301 -13 319 -17 33 -57 38 -83 9 -18 -20 -19 -40 -22 -326 l-3 -306 -147 6
c-81 3 -171 11 -200 17 l-53 12 3 361 c3 356 3 363 27 420 42 101 139 190 246
223 60 19 181 17 242 -4z m1522 -293 l0 -300 -45 -29 c-49 -31 -227 -111 -311
-141 l-53 -18 0 357 0 358 198 40 c108 23 200 39 204 37 4 -2 8 -139 7 -304z
m84 174 c-7 -2 -19 -2 -25 0 -7 3 -2 5 12 5 14 0 19 -2 13 -5z m190 -38 c84
-29 153 -83 166 -130 19 -69 -13 -138 -107 -227 -378 -361 -1602 -697 -2281
-628 -259 27 -391 99 -391 215 0 53 56 142 126 203 55 47 81 56 42 15 -38 -41
-68 -103 -68 -142 0 -80 85 -143 240 -178 109 -25 485 -25 670 0 671 91 1335
340 1564 588 121 130 90 238 -85 300 l-54 19 55 -5 c30 -4 86 -17 123 -30z
m-863 -545 l0 -140 -27 -11 c-16 -6 -104 -31 -198 -54 l-170 -43 -8 29 c-4 17
-7 62 -5 102 l3 71 195 93 c107 51 198 92 203 93 4 0 7 -63 7 -140z m597 -192
c-9 -200 -47 -300 -154 -404 -50 -49 -107 -81 -191 -109 -44 -14 -79 -16 -190
-13 -126 4 -142 7 -202 34 -38 18 -86 51 -115 80 -53 53 -107 149 -109 196
l-1 29 195 49 c192 49 194 49 213 30 20 -22 76 -27 107 -10 11 6 24 28 31 49
10 35 17 40 73 60 33 12 122 48 196 81 74 32 139 59 144 59 5 1 7 -55 3 -131z
m-1117 -373 l0 -155 -205 0 -205 0 0 129 0 128 83 7 c45 3 132 15 192 25 61
11 116 20 123 20 9 1 12 -36 12 -154z m-638 91 l106 -1 5 -40 c2 -22 3 -76 3
-120 l-1 -80 -202 -3 -203 -2 0 130 0 131 93 -8 c50 -4 140 -7 199 -7z"/>
</g>
</svg>
